<?xml version="1.0" encoding="UTF-8"?>
<svg id="_レイヤー_1" data-name="レイヤー 1" xmlns="http://www.w3.org/2000/svg" xmlns:xlink="http://www.w3.org/1999/xlink" version="1.1" viewBox="0 0 792.45 136">
  <defs>
    <style>
      .cls-1 {
        fill: #3763d1;
      }

      .cls-2 {
        font-family: HiraKakuStdN-W8-83pv-RKSJ-H, 'Hiragino Kaku Gothic StdN';
        font-size: 72px;
      }

      .cls-3 {
        fill: #55575b;
      }

      .cls-4 {
        fill: #575b63;
      }

      .cls-5 {
        fill: url(#_名称未設定グラデーション);
      }

      .cls-5, .cls-6 {
        stroke-width: 0px;
      }

      .cls-6 {
        fill: url(#_名称未設定グラデーション-2);
      }
    </style>
    <linearGradient id="_名称未設定グラデーション" data-name="名称未設定グラデーション" x1="37.45" y1="133.5" x2="959.43" y2="133.5" gradientUnits="userSpaceOnUse">
      <stop offset="0" stop-color="#fff"/>
      <stop offset="1" stop-color="#231815"/>
    </linearGradient>
    <linearGradient id="_名称未設定グラデーション-2" data-name="名称未設定グラデーション" x1="-241.51" y1="-25.47" x2="-184.91" y2="-25.47" xlink:href="#_名称未設定グラデーション"/>
  </defs>
  <text/>
  <g>
    <g>
      <path class="cls-5" d="M92.07,94.55c-3.1-.36-5.69-.5-11.88-.5h-22.68c-5.47,0-7.49.07-10.58.22.43-2.88.58-5.54.58-10.51v-39.32c0-4.46-.14-6.98-.58-10.51,2.95.14,4.97.22,10.58.22h22.97c4.9,0,7.34-.14,10.73-.5v13.47c-3.31-.36-5.9-.5-10.73-.5h-18.72v10.58h15.55c4.75,0,6.48-.07,10.8-.5v13.32c-3.38-.36-5.83-.5-10.8-.5h-15.55v12.1h18.58c5.47,0,8.64-.14,11.74-.5v13.47Z"/>
      <path class="cls-5" d="M111.43,50.12c.14,1.73.5,3.24,1.37,6.19l6.7,22.39c.07.14.14.43.29.79.22.72.22.79.58,2.02.22-.65.29-1.01.36-1.3.07-.14.14-.36.22-.72.14-.36.22-.65.29-.86l6.7-22.32c.79-2.66,1.22-4.61,1.37-6.19h15.99c-1.44,3.24-2.02,4.61-2.95,6.98l-12.1,30.89c-1.22,3.1-1.58,4.25-1.94,6.05h-15.77c-.36-1.8-.72-2.95-1.94-6.05l-12.1-30.89c-.43-1.01-1.44-3.31-3.02-6.98h15.99Z"/>
      <path class="cls-5" d="M160.89,76.12c.72,5.83,4.1,8.93,9.79,8.93,2.88,0,5.4-.94,7.27-2.66,1.08-1.01,1.58-1.8,2.16-3.67l12.53,3.53c-1.66,3.74-2.74,5.4-4.75,7.42-4.1,4.03-9.87,6.12-16.99,6.12s-12.6-2.02-16.71-6.12c-4.25-4.32-6.55-10.44-6.55-17.57,0-14.26,9.14-23.69,22.9-23.69,11.23,0,19.08,6.12,21.6,16.85.58,2.3.86,5.33,1.08,9.43,0,.29,0,.72.07,1.44h-32.4ZM179.61,66.18c-1.01-4.61-4.1-7.06-9.07-7.06s-8.21,2.3-9.43,7.06h18.51Z"/>
      <path class="cls-5" d="M199.05,94.05c.43-3.38.58-6.41.58-10.87v-22.18c0-4.97-.14-7.99-.58-10.87h14.33v3.02c0,.43-.07,1.51-.07,2.02,4.54-4.32,8.93-6.12,14.83-6.12,4.97,0,8.93,1.37,11.59,4.03,2.88,2.88,4.1,6.41,4.1,12.1v18.07c0,4.18.22,7.78.58,10.8h-14.98c.43-3.46.58-6.48.58-10.87v-14.76c0-2.88-.29-4.1-1.15-5.33-.94-1.3-2.59-2.02-4.75-2.02-4.03,0-7.63,2.52-10.73,7.56v14.55c0,4.1.14,7.13.58,10.87h-14.91Z"/>
      <path class="cls-5" d="M257.59,48.61c0-3.6-.14-6.48-.58-9.86h14.69c-.36,2.95-.58,6.41-.58,9.86v1.51h2.59c3.17,0,4.82-.07,7.06-.36v11.95c-2.16-.29-4.03-.43-6.62-.43h-3.02v18.43c0,2.02.36,3.02,1.3,3.67.79.5,1.94.79,3.31.79,1.87,0,3.24-.36,5.04-1.3l1.08,10.94c-3.24,1.01-6.05,1.44-9.94,1.44-4.9,0-8.28-.79-10.58-2.52-2.74-2.09-3.74-4.54-3.74-9.43v-22.03h-2.74c-2.3,0-4.18.14-6.26.43v-12.02c2.09.29,3.89.43,6.41.43h2.59v-1.51Z"/>
      <path class="cls-5" d="M285.52,64.38c2.23.36,4.25.5,6.98.5h14.26c2.74,0,4.75-.14,6.98-.5v13.68c-2.38-.36-4.32-.5-6.98-.5h-14.26c-2.66,0-4.61.14-6.98.5v-13.68Z"/>
      <path class="cls-5" d="M320.51,94.05c.43-3.31.58-6.34.58-10.87v-22.18c0-5.47-.14-8.06-.58-10.87h14.26v3.02q0,.29-.07,1.01v.72c3.67-4.03,8.06-5.9,13.75-5.9,3.74,0,6.84.86,9.22,2.59,1.3.94,2.02,1.8,2.95,3.6,4.46-4.39,8.86-6.26,15.12-6.26,10.3,0,15.55,5.62,15.55,16.49v17.86c0,4.46.14,7.42.58,10.8h-14.98c.43-3.38.58-5.98.58-10.87v-14.83c0-5.4-1.58-7.49-5.69-7.49-3.67,0-6.98,2.88-8.79,7.71v14.69c0,4.32.14,7.34.58,10.8h-14.98c.43-3.24.58-6.26.58-10.87v-14.83c0-3.02-.29-4.39-1.22-5.62-.79-1.15-2.23-1.8-3.96-1.8-3.89,0-7.2,2.81-9.22,7.7v14.55c0,4.54.14,7.34.58,10.87h-14.83Z"/>
      <path class="cls-5" d="M428.23,63.95c0-3.46-2.09-5.04-6.84-5.04s-7.06,1.51-8.14,5.04l-13.75-2.23c1.44-4.25,3.02-6.55,6.05-8.71,3.89-2.74,9.22-4.1,16.2-4.1,5.33,0,10.51,1.01,13.32,2.52,4.61,2.52,6.62,6.48,6.62,12.96v19.44c0,4.39.14,6.98.5,10.23h-13.97v-3.31c-4.03,3.1-8.06,4.32-13.97,4.32-5.47,0-9.58-1.3-12.46-3.96-2.59-2.38-3.96-5.83-3.96-9.79,0-4.54,1.8-8.14,5.26-10.51,3.67-2.59,8.5-4.1,14.98-4.68,2.81-.29,4.97-.36,10.15-.5v-1.66ZM428.23,74.82c-6.41.14-9.5.5-12.46,1.44-2.59.86-4.18,2.66-4.18,4.75,0,2.59,2.16,4.1,5.9,4.1,2.95,0,6.19-1.08,8.14-2.74,1.66-1.44,2.59-3.38,2.59-5.54v-2.02Z"/>
      <path class="cls-5" d="M455.51,48.61c0-3.6-.14-6.48-.58-9.86h14.69c-.36,2.95-.58,6.41-.58,9.86v1.51h2.59c3.17,0,4.82-.07,7.06-.36v11.95c-2.16-.29-4.03-.43-6.62-.43h-3.02v18.43c0,2.02.36,3.02,1.3,3.67.79.5,1.94.79,3.31.79,1.87,0,3.24-.36,5.04-1.3l1.08,10.94c-3.24,1.01-6.05,1.44-9.94,1.44-4.9,0-8.28-.79-10.58-2.52-2.74-2.09-3.74-4.54-3.74-9.43v-22.03h-2.74c-2.3,0-4.18.14-6.26.43v-12.02c2.09.29,3.89.43,6.41.43h2.59v-1.51Z"/>
      <path class="cls-5" d="M482.44,72.01c0-14.4,9.22-23.55,23.76-23.55s23.76,9.14,23.76,23.4-9.5,23.83-23.83,23.83-23.69-9.22-23.69-23.69ZM496.19,71.94c0,7.99,3.74,12.82,10.01,12.82s9.87-4.68,9.87-12.67-3.67-12.82-9.79-12.82-10.08,4.75-10.08,12.67Z"/>
      <path class="cls-5" d="M535.79,94.05c.43-3.31.58-6.34.58-10.87v-22.18c0-5.47-.14-8.06-.58-10.87h14.26v3.02q0,.29-.07,1.01v.72c3.67-4.03,8.07-5.9,13.75-5.9,3.74,0,6.84.86,9.22,2.59,1.3.94,2.02,1.8,2.95,3.6,4.46-4.39,8.86-6.26,15.12-6.26,10.3,0,15.55,5.62,15.55,16.49v17.86c0,4.46.14,7.42.58,10.8h-14.98c.43-3.38.58-5.98.58-10.87v-14.83c0-5.4-1.58-7.49-5.69-7.49-3.67,0-6.99,2.88-8.79,7.71v14.69c0,4.32.14,7.34.58,10.8h-14.98c.43-3.24.58-6.26.58-10.87v-14.83c0-3.02-.29-4.39-1.22-5.62-.79-1.15-2.23-1.8-3.96-1.8-3.89,0-7.2,2.81-9.22,7.7v14.55c0,4.54.14,7.34.58,10.87h-14.83Z"/>
      <path class="cls-5" d="M626.01,76.12c.72,5.83,4.1,8.93,9.79,8.93,2.88,0,5.4-.94,7.27-2.66,1.08-1.01,1.58-1.8,2.16-3.67l12.53,3.53c-1.66,3.74-2.74,5.4-4.75,7.42-4.1,4.03-9.86,6.12-16.99,6.12s-12.6-2.02-16.71-6.12c-4.25-4.32-6.55-10.44-6.55-17.57,0-14.26,9.14-23.69,22.9-23.69,11.23,0,19.08,6.12,21.6,16.85.58,2.3.86,5.33,1.08,9.43,0,.29,0,.72.07,1.44h-32.4ZM644.73,66.18c-1.01-4.61-4.1-7.06-9.07-7.06s-8.21,2.3-9.43,7.06h18.51Z"/>
      <path class="cls-5" d="M696.57,63.08c-3.31-1.01-5.11-1.37-7.34-1.37-3.67,0-6.48,1.3-8.57,3.89-1.37,1.73-1.87,3.24-2.16,6.41v11.23c0,4.61.14,7.34.58,10.8h-14.91c.43-3.6.58-6.19.58-10.87v-22.18c0-5.26-.14-7.78-.58-10.87h14.33v5.69c3.53-4.61,7.85-6.55,14.4-6.55,2.3,0,3.74.14,7.13.86l-3.46,12.96Z"/>
      <path class="cls-5" d="M749.63,50.12c-.43,3.38-.58,6.41-.58,10.8v22.25c0,4.97.14,7.92.58,10.8h-14.33v-3.1c0-.36,0-1.44.07-1.94-4.75,4.46-8.86,6.19-14.98,6.19-4.83,0-8.71-1.37-11.45-4.03-2.88-2.88-4.1-6.41-4.1-12.1v-18.07c0-4.18-.22-7.78-.58-10.8h14.98c-.43,3.46-.58,6.48-.58,10.8v14.76c0,2.95.29,4.25,1.15,5.4,1.01,1.3,2.59,2.02,4.68,2.02,3.96,0,7.99-2.81,10.8-7.42v-14.76c0-4.03-.14-7.06-.58-10.8h14.91Z"/>
    </g>
    <text class="cls-2" transform="translate(42.45 91.81)"><tspan class="cls-4" x="0" y="0">Event-</tspan><tspan class="cls-1" x="274.24" y="0">matome</tspan><tspan class="cls-3" x="617.9" y="0">ru</tspan></text>
  </g>
  <line class="cls-6" x1="-184.91" y1="-30.19" x2="-241.51" y2="-20.75"/>
  <text/>
</svg>